<?xml version="1.0" standalone="no"?><!DOCTYPE svg PUBLIC "-//W3C//DTD SVG 1.1//EN" "http://www.w3.org/Graphics/SVG/1.1/DTD/svg11.dtd"><svg t="1588398231955" class="icon" viewBox="0 0 1024 1024" version="1.1" xmlns="http://www.w3.org/2000/svg" p-id="7172" xmlns:xlink="http://www.w3.org/1999/xlink" width="128" height="128"><defs><style type="text/css"></style></defs><path d="M192 768v-128H96a32 32 0 0 1 0-64h96v-128H96a32 32 0 0 1 0-64h96V256H96a32 32 0 1 1 0-64h96V96a32 32 0 1 1 64 0v96h128V96a32 32 0 0 1 64 0v96h128V96a32 32 0 0 1 64 0v96h128V96a32 32 0 0 1 64 0v96h96a32 32 0 0 1 0 64h-96v128h96a32 32 0 0 1 0 64h-96v128h96a32 32 0 0 1 0 64h-96v128h96a32 32 0 0 1 0 64h-96v96a32 32 0 0 1-64 0v-96h-128v96a32 32 0 0 1-64 0v-96h-128v96a32 32 0 0 1-64 0v-96H256v96a32 32 0 0 1-64 0v-96H96a32 32 0 0 1 0-64h96z m64 0h128v-128H256v128z m192 0h128v-128h-128v128z m192 0h128v-128h-128v128z m128-192v-128h-128v128h128z m-192 0v-128h-128v128h128z m-192 0v-128H256v128h128z m-128-192h128V256H256v128z m192 0h128V256h-128v128z m192 0h128V256h-128v128z" fill="#707070" p-id="7173"></path></svg>