<?xml version="1.0" standalone="no"?><!DOCTYPE svg PUBLIC "-//W3C//DTD SVG 1.1//EN" "http://www.w3.org/Graphics/SVG/1.1/DTD/svg11.dtd"><svg t="1588830559854" class="icon" viewBox="0 0 1024 1024" version="1.1" xmlns="http://www.w3.org/2000/svg" p-id="2176" xmlns:xlink="http://www.w3.org/1999/xlink" width="128" height="128"><defs><style type="text/css"></style></defs><path d="M905.846154 118.153846H118.153846v354.461539h787.692308V118.153846zM212.676923 378.092308V212.676923h598.646154v165.415385H212.676923zM905.846154 551.384615H118.153846v354.461539h787.692308v-354.461539zM212.676923 811.323077v-165.415385h598.646154v165.415385H212.676923z" fill="#2c2c2c" p-id="2177"></path><path d="M322.953846 267.815385H267.815385v55.138461h55.138461V267.815385zM756.184615 267.815385h-267.815384v55.138461h267.815384V267.815385zM433.230769 267.815385H378.092308v55.138461h55.138461V267.815385zM322.953846 701.046154H267.815385v55.138461h55.138461v-55.138461zM756.184615 701.046154h-267.815384v55.138461h267.815384v-55.138461zM433.230769 701.046154H378.092308v55.138461h55.138461v-55.138461z" fill="#2c2c2c" p-id="2178"></path></svg>