<?xml version="1.0" standalone="no"?><!DOCTYPE svg PUBLIC "-//W3C//DTD SVG 1.1//EN" "http://www.w3.org/Graphics/SVG/1.1/DTD/svg11.dtd"><svg t="1647168294441" class="icon" viewBox="0 0 1024 1024" version="1.1" xmlns="http://www.w3.org/2000/svg" p-id="1270" xmlns:xlink="http://www.w3.org/1999/xlink" width="144" height="144"><defs><style type="text/css"></style></defs><path d="M506.576896 48.531456c-261.41696 0-473.339904 211.919872-473.339904 473.339904 0 261.42208 211.922944 473.341952 473.339904 473.341952 261.419008 0 473.34912-211.919872 473.34912-473.341952C979.926016 260.452352 767.995904 48.531456 506.576896 48.531456zM503.190528 827.364352c-10.563584 0-19.127296-8.562688-19.127296-19.124224 0-10.566656 8.562688-19.129344 19.127296-19.129344 10.566656 0 19.129344 8.562688 19.129344 19.129344C522.319872 818.80064 513.757184 827.364352 503.190528 827.364352zM592.502784 505.329664c-47.678464 23.417856-74.631168 38.92224-74.631168 86.360064l0 111.905792c0 10.202112-8.31488 18.516992-18.516992 18.516992s-18.516992-8.31488-18.516992-18.516992L480.837632 591.689728c0-72.823808 50.691072-97.646592 95.397888-119.578624 51.89632-25.465856 96.76288-47.47776 86.92224-137.77408-7.02976-64.388096-68.566016-102.265856-163.360768-99.334144-67.601408 1.526784-127.451136 41.25184-152.55552 101.18144-3.936256 9.479168-14.902272 13.776896-24.220672 9.921536-9.439232-3.936256-13.857792-14.78144-9.921536-24.220672 30.728192-73.385984 103.671808-122.028032 185.853952-123.916288 115.641344-1.366016 191.678464 46.794752 200.996864 132.350976C712.602624 446.444544 646.00576 479.100928 592.502784 505.329664z" p-id="1271" fill="#3370FF"></path></svg>