<?xml version="1.0" standalone="no"?><!DOCTYPE svg PUBLIC "-//W3C//DTD SVG 1.1//EN" "http://www.w3.org/Graphics/SVG/1.1/DTD/svg11.dtd"><svg t="1654232247471" class="icon" viewBox="0 0 1024 1024" version="1.1" xmlns="http://www.w3.org/2000/svg" p-id="2148" xmlns:xlink="http://www.w3.org/1999/xlink" width="200" height="200"><defs><style type="text/css">@font-face { font-family: feedback-iconfont; src: url("//at.alicdn.com/t/font_1031158_u69w8yhxdu.woff2?t=1630033759944") format("woff2"), url("//at.alicdn.com/t/font_1031158_u69w8yhxdu.woff?t=1630033759944") format("woff"), url("//at.alicdn.com/t/font_1031158_u69w8yhxdu.ttf?t=1630033759944") format("truetype"); }
</style></defs><path d="M452.266667 507.733333l-29.866667 29.866667 29.866667 29.866667 115.2 115.2 29.866666-29.866667-115.2-115.2L597.333333 422.4l-29.866666-29.866667-115.2 115.2z m81.066666 388.266667c200.533333 0 362.666667-162.133333 362.666667-362.666667S733.866667 170.666667 533.333333 170.666667 170.666667 332.8 170.666667 533.333333 332.8 896 533.333333 896z m0-42.666667C358.4 853.333333 213.333333 708.266667 213.333333 533.333333S358.4 213.333333 533.333333 213.333333 853.333333 358.4 853.333333 533.333333 708.266667 853.333333 533.333333 853.333333z" fill="#444444" p-id="2149"></path></svg>