<?xml version="1.0" standalone="no"?><!DOCTYPE svg PUBLIC "-//W3C//DTD SVG 1.1//EN" "http://www.w3.org/Graphics/SVG/1.1/DTD/svg11.dtd"><svg t="1588819380951" class="icon" viewBox="0 0 1024 1024" version="1.1" xmlns="http://www.w3.org/2000/svg" p-id="1879" xmlns:xlink="http://www.w3.org/1999/xlink" width="128" height="128"><defs><style type="text/css"></style></defs><path d="M365.1 257.3V781c0 2.2 1.8 4 4 4h284.4c2.2 0 4-1.8 4-4V257.3c0-2.2-1.8-4-4-4H369.1c-2.2 0-4 1.8-4 4z" fill="#CBCBCB" p-id="1880"></path><path d="M631 808.3H391.7c-27.5 0-49.8-22.4-49.8-49.8V279.9c0-27.5 22.4-49.8 49.8-49.8H631c27.5 0 49.8 22.4 49.8 49.8v478.5c0 27.5-22.3 49.9-49.8 49.9zM391.7 276.6c-1.8 0-3.3 1.5-3.3 3.3v478.5c0 1.8 1.5 3.3 3.3 3.3H631c1.8 0 3.3-1.5 3.3-3.3V279.9c0-1.8-1.5-3.3-3.3-3.3H391.7zM185.7 961.1c-12.8 0-23.3-10.4-23.3-23.3V87.1c0-12.8 10.4-23.3 23.3-23.3 12.8 0 23.3 10.4 23.3 23.3v850.7c-0.1 12.9-10.5 23.3-23.3 23.3z" fill="#7D7D7D" p-id="1881"></path><path d="M837 961.1c-12.8 0-23.3-10.4-23.3-23.3V87.1c0-12.8 10.4-23.3 23.3-23.3 12.8 0 23.3 10.4 23.3 23.3v850.7c0 12.9-10.4 23.3-23.3 23.3z" fill="#7D7D7D" p-id="1882"></path></svg>