<?xml version="1.0" standalone="no"?><!DOCTYPE svg PUBLIC "-//W3C//DTD SVG 1.1//EN" "http://www.w3.org/Graphics/SVG/1.1/DTD/svg11.dtd"><svg t="1588819392906" class="icon" viewBox="0 0 1024 1024" version="1.1" xmlns="http://www.w3.org/2000/svg" p-id="2019" xmlns:xlink="http://www.w3.org/1999/xlink" width="128" height="128"><defs><style type="text/css"></style></defs><path d="M767.5 366H245.3c-2.2 0-4 1.8-4 4v283.6c0 2.2 1.8 4 4 4h522.2c2.2 0 4-1.8 4-4V370c0-2.2-1.8-4-4-4z" fill="#CBCBCB" p-id="2020"></path><path d="M745 680.8H267.8c-27.4 0-49.7-22.3-49.7-49.7V392.5c0-27.4 22.3-49.7 49.7-49.7H745c27.4 0 49.7 22.3 49.7 49.7v238.6c0 27.4-22.3 49.7-49.7 49.7zM267.8 389.2c-1.8 0-3.3 1.5-3.3 3.3v238.6c0 1.8 1.5 3.3 3.3 3.3H745c1.8 0 3.3-1.5 3.3-3.3V392.5c0-1.8-1.5-3.3-3.3-3.3H267.8zM937.2 210.2H88.8c-12.8 0-23.2-10.4-23.2-23.2s10.4-23.2 23.2-23.2h848.3c12.8 0 23.2 10.4 23.2 23.2s-10.3 23.2-23.1 23.2z" fill="#7D7D7D" p-id="2021"></path><path d="M937.2 859.7H88.8c-12.8 0-23.2-10.4-23.2-23.2 0-12.8 10.4-23.2 23.2-23.2h848.3c12.8 0 23.2 10.4 23.2 23.2 0.1 12.9-10.3 23.2-23.1 23.2z" fill="#7D7D7D" p-id="2022"></path></svg>