<?xml version="1.0" standalone="no"?><!DOCTYPE svg PUBLIC "-//W3C//DTD SVG 1.1//EN" "http://www.w3.org/Graphics/SVG/1.1/DTD/svg11.dtd"><svg t="1588379870481" class="icon" viewBox="0 0 1024 1024" version="1.1" xmlns="http://www.w3.org/2000/svg" p-id="2360" xmlns:xlink="http://www.w3.org/1999/xlink" width="128" height="128"><defs><style type="text/css"></style></defs><path d="M306.176 549.376l1.024 1.024 173.568 152.576c19.968 17.92 50.176 17.408 70.144-0.512l168.448-152.576c20.992-19.968 22.016-53.248 2.048-74.24-19.456-20.48-51.712-22.016-72.704-3.584l-83.456 75.264V72.192c0-29.184-23.552-52.736-52.736-52.736-29.184 0-52.736 23.552-52.736 52.736v472.064L376.32 471.04c-21.504-19.456-54.784-17.408-74.24 4.096-19.456 21.504-17.92 54.784 4.096 74.24z" p-id="2361" fill="#2c2c2c"></path><path d="M969.216 628.224c-30.208 0-54.784 24.576-54.784 54.784v211.968H109.056v-211.968c0-30.208-24.576-54.784-54.784-54.784S0 652.8 0 683.008V901.12c0 56.832 49.664 102.912 110.592 102.912h802.816c60.928 0 110.592-46.08 110.592-102.912v-218.112c0-30.208-24.576-54.784-54.784-54.784z" p-id="2362" fill="#2c2c2c"></path></svg>