<?xml version="1.0" standalone="no"?><!DOCTYPE svg PUBLIC "-//W3C//DTD SVG 1.1//EN" "http://www.w3.org/Graphics/SVG/1.1/DTD/svg11.dtd"><svg t="1588828099161" class="icon" viewBox="0 0 1024 1024" version="1.1" xmlns="http://www.w3.org/2000/svg" p-id="1297" xmlns:xlink="http://www.w3.org/1999/xlink" width="128" height="128"><defs><style type="text/css"></style></defs><path d="M629.557 391.972c17.329 17.32 47.028 17.32 66.815 0l168.302-165.814v133.637c0 19.806 14.85 34.647 34.637 34.647h24.743c19.806 0 34.657-12.372 34.657-29.692V119.733h-2.479l2.479-17.318c0-9.904-2.479-17.33-7.436-24.752-4.936-4.948-14.848-9.895-24.743-9.895h-17.327L664.211 65.29c-19.805 0-34.654 17.329-34.654 34.646v24.752c2.478 22.274 19.789 34.646 39.593 34.646h128.69L632.036 325.149c-22.283 17.319-22.283 47.026-2.478 66.823zM394.44 629.557c-17.31-17.327-47.009-17.327-66.815 0l-168.3 165.807V664.195c0-19.787-14.833-34.638-34.638-34.638h-24.76c-19.788 0-34.639 12.372-34.639 29.699v242.533h2.478l-2.478 17.327c0 9.894 2.478 17.31 7.416 24.744 4.956 4.956 14.868 9.894 24.761 9.894h17.328l244.993 2.478c19.823 0 34.655-17.328 34.655-34.638v-24.76c-2.478-22.266-19.788-34.638-39.593-34.638H226.16l168.283-165.824c17.327-17.327 17.327-47.027-0.001-66.815z m561.79 274.709v-242.55c0-19.787-17.329-29.68-34.639-29.68h-24.759c-19.788 0-34.639 17.31-34.639 34.638v131.168l-168.3-165.806c-17.309-17.329-47.01-17.329-66.816 0-17.326 17.31-17.326 47.009 0 66.814l168.284 165.806h-128.69c-19.787 0-37.116 12.388-39.594 34.654v24.745c0 19.805 17.33 34.654 34.64 34.654l240.071-2.478h17.329c9.893 0 17.31-2.478 24.743-9.894 4.955-4.956 7.415-14.85 7.415-24.744l4.955-17.327c-2.478 0 0 0 0 0zM228.636 159.335h128.69c19.806 0 37.116-12.373 39.593-34.646V99.936c0-19.797-17.309-34.646-34.654-34.646l-244.993 2.478H99.927c-9.876 0-17.31 2.478-24.743 9.895-4.939 4.956-7.416 14.849-7.416 24.752l2.477 17.318h-2.477v245.018c0 19.797 14.85 29.692 34.638 29.692h24.743c19.823 0 34.655-14.841 34.655-34.646v-133.64l168.283 165.815c17.345 17.32 47.045 17.32 66.832 0 17.33-17.327 17.33-47.026 0-66.823L228.636 159.335z m0 0" p-id="1298"></path></svg>