<?xml version="1.0" standalone="no"?><!DOCTYPE svg PUBLIC "-//W3C//DTD SVG 1.1//EN" "http://www.w3.org/Graphics/SVG/1.1/DTD/svg11.dtd"><svg t="1588915056086" class="icon" viewBox="0 0 1024 1024" version="1.1" xmlns="http://www.w3.org/2000/svg" p-id="2838" xmlns:xlink="http://www.w3.org/1999/xlink" width="128" height="128"><defs><style type="text/css"></style></defs><path d="M716.8 290.133333c-110.933333-102.4-281.6-106.666667-396.8-12.8S170.666667 537.6 247.466667 665.6c59.733333 106.666667 179.2 166.4 302.933333 149.333333s221.866667-102.4 256-221.866666c8.533333-34.133333 42.666667-51.2 76.8-42.666667 34.133333 8.533333 51.2 42.666667 42.666667 76.8-68.266667 226.133333-302.933333 354.133333-524.8 290.133333C174.933333 853.333333 42.666667 618.666667 106.666667 392.533333c42.666667-145.066667 153.6-256 298.666666-298.666666s298.666667 0 405.333334 102.4l81.066666-81.066667c8.533333-8.533333 21.333333-12.8 34.133334-8.533333 4.266667 12.8 12.8 21.333333 12.8 34.133333v264.533333c0 17.066667-12.8 29.866667-29.866667 29.866667h-260.266667c-12.8 0-25.6-8.533333-29.866666-17.066667s0-25.6 8.533333-34.133333l89.6-93.866667zM512 601.6c-46.933333 0-85.333333-38.4-85.333333-89.6s38.4-89.6 85.333333-89.6 85.333333 38.4 85.333333 89.6-38.4 89.6-85.333333 89.6z" p-id="2839"></path></svg>