<?xml version="1.0" standalone="no"?><!DOCTYPE svg PUBLIC "-//W3C//DTD SVG 1.1//EN" "http://www.w3.org/Graphics/SVG/1.1/DTD/svg11.dtd"><svg t="1588389452712" class="icon" viewBox="0 0 1024 1024" version="1.1" xmlns="http://www.w3.org/2000/svg" p-id="4337" xmlns:xlink="http://www.w3.org/1999/xlink" width="128" height="128"><defs><style type="text/css"></style></defs><path d="M755.916 98.271L149 98.333c-23.826 0-50.576 26.919-50.576 50.601v606.521c0 25.643 26.758 50.502 50.576 50.636h606.916c25.035-0.134 50.576-25.003 50.576-50.636V148.934c0-23.615-25.532-50.601-50.576-50.663z m-119.52 386.371l-376.61 0.002-0.011 0.001c-20.754 0-37.268-13.112-37.268-37.108 0-22.504 17.139-37.427 37.139-37.427l376.75-0.003c20.585 0.003 37.27 16.688 37.271 37.271-0.004 20.577-16.689 37.263-37.271 37.264z" p-id="4338" fill="#1296db"></path><path d="M960.163 489.052l0.002 430.019 0.001 0.012c0 18.861-12.905 34.708-30.36 39.202a40.859 40.859 0 0 1-10.115 1.272h-0.006l-559.495 0.001c-22.353-0.001-40.475-18.123-40.478-40.478 0-22.354 18.121-40.475 40.475-40.475l519.029-0.001-0.003-389.553c0.003-22.357 18.124-40.478 40.478-40.478 22.35 0.004 40.471 18.126 40.472 40.479z" p-id="4339" fill="#1296db"></path></svg>