<?xml version="1.0" standalone="no"?><!DOCTYPE svg PUBLIC "-//W3C//DTD SVG 1.1//EN" "http://www.w3.org/Graphics/SVG/1.1/DTD/svg11.dtd"><svg t="1589521972773" class="icon" viewBox="0 0 1024 1024" version="1.1" xmlns="http://www.w3.org/2000/svg" p-id="2319" xmlns:xlink="http://www.w3.org/1999/xlink" width="128" height="128"><defs><style type="text/css"></style></defs><path d="M512 362.730667A149.269333 149.269333 0 1 0 661.269333 512 149.44 149.44 0 0 0 512 362.730667z m0 255.893333A106.624 106.624 0 1 1 618.624 512 106.752 106.752 0 0 1 512 618.624z" fill="#646464" p-id="2320"></path><path d="M858.090667 554.602667a53.866667 53.866667 0 0 1 0-85.205334 96.448 96.448 0 0 0-71.232-172.010666 53.824 53.824 0 0 1-60.245334-60.245334 96.448 96.448 0 0 0-172.010666-71.253333 55.509333 55.509333 0 0 1-85.205334 0 96.448 96.448 0 0 0-172.010666 71.253333 53.824 53.824 0 0 1-60.245334 60.245334 96.448 96.448 0 0 0-71.253333 172.010666 53.866667 53.866667 0 0 1 0 85.205334 96.448 96.448 0 0 0 71.253333 172.010666 53.824 53.824 0 0 1 60.245334 60.245334 94.336 94.336 0 0 0 58.773333 101.397333A99.605333 99.605333 0 0 0 394.24 896a94.357333 94.357333 0 0 0 75.157333-37.909333 55.509333 55.509333 0 0 1 85.205334 0 96.448 96.448 0 0 0 172.010666-71.253334 53.824 53.824 0 0 1 60.245334-60.224 96.448 96.448 0 0 0 71.253333-172.010666z m-9.258667 96.917333a52.309333 52.309333 0 0 1-56.554667 32.768 96.512 96.512 0 0 0-107.968 107.989333A53.824 53.824 0 0 1 588.352 832a99.413333 99.413333 0 0 0-152.682667 0 53.824 53.824 0 0 1-95.957333-39.744 96.533333 96.533333 0 0 0-95.509333-108.778667 100.885333 100.885333 0 0 0-12.48 0.789334A53.824 53.824 0 0 1 192 588.330667a96.490667 96.490667 0 0 0 0-152.682667 53.824 53.824 0 0 1 39.744-95.957333 96.512 96.512 0 0 0 107.968-107.946667 53.824 53.824 0 0 1 95.978667-39.765333 99.413333 99.413333 0 0 0 152.682666 0 53.824 53.824 0 0 1 95.957334 39.744 96.512 96.512 0 0 0 107.946666 107.968 53.824 53.824 0 0 1 39.765334 95.957333 96.490667 96.490667 0 0 0 0 152.682667 52.053333 52.053333 0 0 1 16.810666 63.189333z" fill="#646464" p-id="2321"></path></svg>