<?xml version="1.0" standalone="no"?><!DOCTYPE svg PUBLIC "-//W3C//DTD SVG 1.1//EN" "http://www.w3.org/Graphics/SVG/1.1/DTD/svg11.dtd"><svg t="1591845002824" class="icon" viewBox="0 0 1024 1024" version="1.1" xmlns="http://www.w3.org/2000/svg" p-id="20675" xmlns:xlink="http://www.w3.org/1999/xlink" width="128" height="128"><defs><style type="text/css"></style></defs><path d="M511.479419 48.134288c-256.007906 0-463.367024 207.354253-463.367024 463.365808s207.357902 463.370673 463.367024 463.370673c256.010339 0 463.367024-207.362767 463.367024-463.370673 0.001216-256.00669-207.356686-463.365808-463.367024-463.365808z m0 860.283334c-219.118412 0-396.918742-177.799114-396.918742-396.916309 0-219.118412 177.799114-396.917526 396.918742-396.917527 219.122061 0 396.924824 177.799114 396.924824 396.917527 0.001216 219.117196-177.802763 396.91631-396.924824 396.916309z" p-id="20676"></path><path d="M738.163285 474.136241h-189.318795V284.819879c0-19.925605-17.437033-37.362639-37.361422-37.362639-19.932903 0-37.369937 17.437033-37.369937 37.362639v189.317578h-189.318794c-19.924389 0-37.361423 17.437033-37.361423 37.367504 0 19.926822 17.437033 37.363855 37.361423 37.363856h189.317578v189.316362c0 19.926822 17.437033 37.363855 37.369937 37.363855 19.924389 0 37.361423-17.437033 37.361422-37.363855V548.8676h189.318795c19.926822 0 37.363855-17.437033 37.363855-37.363855 0-19.930471-17.435817-37.367504-37.362639-37.367504z" p-id="20677"></path></svg>