<?xml version="1.0" standalone="no"?><!DOCTYPE svg PUBLIC "-//W3C//DTD SVG 1.1//EN" "http://www.w3.org/Graphics/SVG/1.1/DTD/svg11.dtd"><svg t="1588992142829" class="icon" viewBox="0 0 1024 1024" version="1.1" xmlns="http://www.w3.org/2000/svg" p-id="9980" xmlns:xlink="http://www.w3.org/1999/xlink" width="128" height="128"><defs><style type="text/css"></style></defs><path d="M523.850517 50.98897l409.714334 185.016703 0.37584 0.15812 0.180014 0.065681 0.439088 0.221369c0.661673 0.305294 1.323346 0.638563 1.938799 0.990077l-2.377887-1.211446a30.676578 30.676578 0 0 1 5.04769 2.868061l0.396517 0.304078c0.638563 0.443953 1.254017 0.948723 1.851226 1.458357l0.508417 0.439088c0.574099 0.509634 1.125088 1.036297 1.674861 1.609179l0.397733 0.42206c0.463414 0.485308 0.925613 1.013187 1.364701 1.564176l0.661673 0.883042a24.742197 24.742197 0 0 1 2.382753 3.659879c0.412329 0.739517 0.795467 1.499711 1.146982 2.272069l0.222584 0.485308 0.638564 1.633506-0.884258-2.118814a31.290815 31.290815 0 0 1 2.734267 12.459889V758.369858a30.867539 30.867539 0 0 1-18.146143 28.158814l-410.270187 185.244153-0.308943 0.128929c-0.829524 0.370975-1.67486 0.703028-2.536009 0.993726l2.844952-1.123871a30.675361 30.675361 0 0 1-5.468534 1.873119l-1.078868 0.222585c-1.036297 0.222585-2.081108 0.384354-3.130784 0.481659l-2.956852 0.133794a31.11445 31.11445 0 0 1-9.415463-1.476601l-0.374624-0.133795a27.275772 27.275772 0 0 1-2.534792-0.971832l-0.310159-0.128929-410.264106-185.244153a30.867539 30.867539 0 0 1-18.151008-28.158814v-494.19929c0-0.527879 0-1.059407 0.04622-1.564176l-0.04622 1.786761c0-3.308366 0.527879-6.588756 1.564176-9.725622l0.28705-0.836822 0.661673-1.633505 0.222585-0.485308 0.287049-0.661674 0.836822-1.609179-1.146981 2.272069a31.343116 31.343116 0 0 1 3.529734-5.953842l0.661673-0.836822c0.440305-0.575315 0.902503-1.101978 1.389027-1.611612l0.374624-0.397734a29.191462 29.191462 0 0 1 1.67486-1.609179l0.508418-0.439088c0.597209-0.509634 1.212662-0.990077 1.850009-1.458357l0.397734-0.287049a28.55898 28.55898 0 0 1 5.602328-3.125919L498.602335 50.98897a30.652251 30.652251 0 0 1 25.248182 0zM131.6912 312.11268l0.023109 426.274406 348.713908 157.459963V469.567777L131.6912 312.11268z m759.029098 0L541.978415 469.567777v426.279272l348.741883-157.459963V312.11268zM511.214263 112.998933L175.928428 264.391937 511.215479 415.781292l335.287052-151.389355-335.288268-151.393004z m0 0" p-id="9981"></path></svg>