<?xml version="1.0" standalone="no"?><!DOCTYPE svg PUBLIC "-//W3C//DTD SVG 1.1//EN" "http://www.w3.org/Graphics/SVG/1.1/DTD/svg11.dtd"><svg t="1588212220380" class="icon" viewBox="0 0 1024 1024" version="1.1" xmlns="http://www.w3.org/2000/svg" p-id="2304" xmlns:xlink="http://www.w3.org/1999/xlink" width="16" height="16"><defs><style type="text/css"></style></defs><path d="M854.357322 285.951661l-34.659381 663.552671-0.030699 0.378623c-2.548032 28.499078-26.759457 50.837852-55.115272 50.837852l-474.844775 0c-28.355815 0-52.577472-22.338774-55.125505-50.837852l-0.051165-0.757247-34.618449-663.174048c-0.583285-11.2973 8.084119-20.916379 19.371186-21.509896 11.2973-0.593518 20.916379 8.084119 21.509896 19.371186l34.58775 662.703327c0.798179 7.101745 7.41897 13.272281 14.326287 13.272281l474.844775 0c6.897084 0 13.517875-6.170536 14.316054-13.262048l34.608216-662.71356c0.593518-11.287067 10.212596-19.954471 21.509896-19.371186C846.273203 265.035282 854.940606 274.664593 854.357322 285.951661zM936.191118 141.716652c0 11.307533-9.15859 20.466124-20.466124 20.466124l-265.875416 0c-11.307533 0-20.466124-9.15859-20.466124-20.466124l0-61.35744c0-11.266601-9.168824-20.435425-20.435425-20.435425l-163.616428 0c-11.276834 0-20.445658 9.168824-20.445658 20.435425l0 61.35744c0 11.307533-9.15859 20.466124-20.466124 20.466124l-265.875416 0c-11.2973 0-20.466124-9.15859-20.466124-20.466124 0-11.307533 9.168824-20.466124 20.466124-20.466124l245.409292 0 0-40.891316c0-33.840736 27.53717-61.367673 61.377906-61.367673l163.616428 0c33.830503 0 61.367673 27.526937 61.367673 61.367673l0 40.891316 245.409292 0C927.032528 121.250528 936.191118 130.409119 936.191118 141.716652zM639.636982 305.33308l0 572.662615c0 11.2973-9.168824 20.466124-20.466124 20.466124-11.307533 0-20.466124-9.168824-20.466124-20.466124l0-572.662615c0-11.307533 9.15859-20.466124 20.466124-20.466124C630.468159 284.866956 639.636982 294.025547 639.636982 305.33308zM455.564663 305.33308l0 572.662615c0 11.2973-9.15859 20.466124-20.466124 20.466124-11.2973 0-20.466124-9.168824-20.466124-20.466124l0-572.662615c0-11.307533 9.168824-20.466124 20.466124-20.466124C446.406073 284.866956 455.564663 294.025547 455.564663 305.33308z" p-id="2305" fill="#d81e06"></path></svg>