<?xml version="1.0" standalone="no"?><!DOCTYPE svg PUBLIC "-//W3C//DTD SVG 1.1//EN" "http://www.w3.org/Graphics/SVG/1.1/DTD/svg11.dtd"><svg t="1591845014094" class="icon" viewBox="0 0 1024 1024" version="1.1" xmlns="http://www.w3.org/2000/svg" p-id="20810" xmlns:xlink="http://www.w3.org/1999/xlink" width="128" height="128"><defs><style type="text/css"></style></defs><path d="M511.314001 57.469475c-249.110207 0-450.880376 201.765304-450.880377 450.875511 0 249.112639 201.770169 450.886458 450.880377 450.886458 249.106558 0 450.875511-201.775035 450.875511-450.886458 0-249.105342-201.768953-450.875511-450.875511-450.875511z m0 837.098015c-213.215655 0-386.221288-173.005633-386.221288-386.216423 0-213.216872 173.005633-386.222504 386.221288-386.222504 213.215655 0 386.226153 173.005633 386.226153 386.222504 0 213.21079-173.010498 386.216423-386.226153 386.216423z" p-id="20811"></path><path d="M731.884688 471.989452H290.734799c-19.385563 0-36.351884 16.971186-36.351884 36.361615s16.966321 36.35675 36.351884 36.35675h441.149889c19.389212 0 36.35675-16.966321 36.35675-36.35675-0.001216-19.394078-16.967537-36.361615-36.35675-36.361615z" p-id="20812"></path></svg>